<mxfile host="app.diagrams.net" agent="Mozilla/5.0 (X11; Ubuntu; Linux x86_64; rv:132.0) Gecko/20100101 Firefox/132.0" version="24.8.4">
  <diagram name="Page-1" id="JQH4CGquwNSrJiN4EWIq">
    <mxGraphModel dx="1434" dy="794" grid="0" gridSize="10" guides="1" tooltips="1" connect="1" arrows="1" fold="1" page="0" pageScale="1" pageWidth="850" pageHeight="1100" math="0" shadow="0">
      <root>
        <mxCell id="0" />
        <mxCell id="1" parent="0" />
        <mxCell id="gIv5DeEMvpn-gfwTawNx-6" value="&lt;table border=&quot;1&quot; width=&quot;100%&quot; height=&quot;100%&quot; cellpadding=&quot;4&quot; style=&quot;width:100%;height:100%;border-collapse:collapse;&quot;&gt;&lt;tbody&gt;&lt;tr&gt;&lt;th align=&quot;center&quot;&gt;&lt;b&gt;congty&lt;/b&gt;&lt;/th&gt;&lt;/tr&gt;&lt;tr align=&quot;left&quot;&gt;&lt;td&gt;- id&lt;br&gt;- list_nv_vanphong&lt;br&gt;- list_nv_banhang&lt;br&gt;&lt;/td&gt;&lt;/tr&gt;&lt;tr align=&quot;left&quot;&gt;&lt;td&gt;- add_nv(nv)&lt;br&gt;- cal_nv_slary()&lt;br&gt;- print_info()&lt;br&gt;- find_nv()&lt;br&gt;- find_lowest_slary_nv()&lt;br&gt;- find_highest_slary_nv_banhang()&lt;br&gt;- find_top_10_slary()&lt;br&gt;- get_lowest_units_nv()&lt;br&gt;&lt;/td&gt;&lt;/tr&gt;&lt;/tbody&gt;&lt;/table&gt;" style="text;html=1;whiteSpace=wrap;strokeColor=none;fillColor=none;overflow=fill;" vertex="1" parent="1">
          <mxGeometry x="214" y="323" width="180" height="180" as="geometry" />
        </mxCell>
      </root>
    </mxGraphModel>
  </diagram>
</mxfile>
